<svg width="46" height="46" viewBox="0 0 46 46" fill="none" xmlns="http://www.w3.org/2000/svg">
<g clip-path="url(#clip0_10910_112253)">
<circle cx="23" cy="23" r="23" fill=""/>
<path fill-rule="evenodd" clip-rule="evenodd" d="M36.5935 23.1616C36.5274 24.1555 36.0627 27.5172 32.87 29.0379C30.1557 30.3294 26.8027 29.6601 24.6509 27.603C32.0892 27.0424 33.9411 24.8026 34.3572 23.4391C34.6343 22.531 34.4719 21.3018 33.6397 19.8836C34.6314 19.4835 35.321 19.4115 35.6731 19.6358C36.1333 19.9279 36.7237 21.2159 36.5935 23.1616ZM14.8499 29.0302C13.5016 28.4177 12.9943 26.5454 12.9487 24.9618C14.9204 26.1385 17.4619 27.014 20.3437 27.4618C18.4154 29.1361 16.1643 29.6276 14.8499 29.0302ZM20.3248 25.3513C17.4349 24.8474 14.9192 23.8555 13.207 22.5965C13.4945 21.5389 13.9495 20.8558 14.3068 20.7111C14.3855 20.6793 14.4789 20.6634 14.5877 20.6634C15.6036 20.6634 17.901 22.0781 20.3248 25.3513ZM10.8821 19.4846C10.53 17.6961 11.8657 14.5627 16.7869 11.6142C19.4893 9.99664 22.019 9.25882 23.6481 9.25882C24.2818 9.25882 24.7788 9.36956 25.0971 9.58413C25.8639 10.1005 26.1896 11.4813 26.022 13.4816C23.4416 12.1776 20.7001 11.4585 19.1225 12.5597C17.55 13.6567 17.4596 16.3533 18.8358 20.5968C16.82 18.9135 14.874 18.2138 13.4184 18.8028C12.5421 19.1579 11.9135 19.931 11.4827 20.8681C11.1865 20.4203 10.9755 19.958 10.8821 19.4846ZM20.4457 14.2277C20.5788 14.1349 20.8016 14.0851 21.1 14.0851C22.0227 14.0851 23.6812 14.5682 25.694 15.6902C25.1905 18.0532 24.1811 20.9519 22.5895 24.1856C20.1024 18.4657 19.5819 14.8306 20.4457 14.2277ZM32.2291 22.8672C31.8696 24.0452 29.2576 25.0059 25.5465 25.4268C28.0122 23.3199 30.0766 21.8242 31.6968 20.8676C32.1828 21.6518 32.3872 22.3495 32.2291 22.8672ZM30.3735 19.21C29.0105 20.0129 27.4858 21.0892 25.7964 22.4458C26.6646 20.4192 27.2924 18.576 27.688 16.9405C28.7326 17.6776 29.6427 18.4542 30.3735 19.21ZM36.9025 17.9149C35.849 17.2449 34.3316 17.3432 32.3731 18.1848C31.4035 17.1002 30.0655 15.9478 28.2563 14.767C28.2077 14.7352 28.1577 14.7047 28.1092 14.6736C28.5672 11.1755 27.8387 8.87064 26.3897 7.89471C23.9541 6.25364 19.2211 7.70091 15.6123 9.86248C11.7813 12.1569 7.95999 15.9886 8.72308 19.8612C8.97377 21.1347 9.70158 22.3266 10.8058 23.3794C10.7565 23.7607 10.7271 24.1366 10.719 24.4944C10.6485 27.5758 11.8277 29.9706 13.8736 30.9002C14.5389 31.2027 15.28 31.3459 16.0556 31.3459C17.2127 31.3459 18.447 31.013 19.6328 30.4226C18.8293 32.4104 18.2912 34.4903 18.0625 36.5958C17.7023 39.9278 17.9552 42.7954 19.0396 46L21.3061 45.9426C20.3143 43.0106 19.9269 39.8531 20.2577 36.8063C20.5577 34.0273 21.4413 31.2954 22.8161 28.8023C24.6584 30.7029 27.2733 31.7702 29.9001 31.7702C31.2528 31.7702 32.6084 31.4878 33.8618 30.8905C36.7209 29.5291 38.5639 26.6885 38.7903 23.2921C38.9528 20.8579 38.2118 18.7475 36.9025 17.9149Z" fill="white"/>
</g>
<defs>
<clipPath id="clip0_10910_112253">
<rect width="46" height="46" fill="white"/>
</clipPath>
</defs>
</svg>
