<svg width="562" height="56" viewBox="0 0 562 56" fill="none" xmlns="http://www.w3.org/2000/svg">
<g clip-path="url(#clip0_11929_4054)">
<path d="M176.756 42C184.354 42 190.513 35.732 190.513 28C190.513 20.268 184.354 14 176.756 14C169.159 14 163 20.268 163 28C163 35.732 169.159 42 176.756 42Z" fill="white"/>
<path fill-rule="evenodd" clip-rule="evenodd" d="M184.885 28.0984C184.845 28.7034 184.567 30.7497 182.658 31.6753C181.034 32.4615 179.029 32.0541 177.742 30.802C182.191 30.4607 183.298 29.0974 183.547 28.2674C183.713 27.7146 183.616 26.9664 183.118 26.1031C183.711 25.8596 184.124 25.8158 184.334 25.9523C184.609 26.1301 184.962 26.9142 184.885 28.0984ZM171.879 31.6707C171.072 31.2978 170.769 30.1582 170.741 29.1943C171.921 29.9105 173.441 30.4434 175.164 30.716C174.011 31.7351 172.665 32.0343 171.879 31.6707ZM175.154 29.4313C173.426 29.1246 171.921 28.5209 170.897 27.7545C171.069 27.1108 171.341 26.6949 171.555 26.6069C171.602 26.5875 171.658 26.5778 171.723 26.5778C172.33 26.5778 173.705 27.439 175.154 29.4313ZM169.506 25.8603C169.296 24.7716 170.095 22.8644 173.038 21.0696C174.655 20.085 176.168 19.6359 177.142 19.6359C177.521 19.6359 177.818 19.7033 178.009 19.8339C178.467 20.1482 178.662 20.9887 178.562 22.2063C177.018 21.4126 175.379 20.9748 174.435 21.6451C173.495 22.3129 173.44 23.9543 174.264 26.5373C173.058 25.5127 171.894 25.0868 171.023 25.4453C170.499 25.6614 170.123 26.132 169.866 26.7025C169.688 26.4299 169.562 26.1484 169.506 25.8603ZM175.227 22.6603C175.306 22.6039 175.439 22.5735 175.618 22.5735C176.17 22.5735 177.162 22.8676 178.366 23.5506C178.065 24.9889 177.461 26.7533 176.509 28.7217C175.021 25.24 174.71 23.0273 175.227 22.6603ZM182.274 27.9191C182.059 28.6361 180.496 29.2209 178.277 29.4771C179.752 28.1946 180.986 27.2842 181.955 26.7019C182.246 27.1793 182.368 27.6039 182.274 27.9191ZM181.164 25.6932C180.349 26.1819 179.437 26.837 178.427 27.6628C178.946 26.4292 179.322 25.3072 179.558 24.3117C180.183 24.7604 180.727 25.2331 181.164 25.6932ZM185.069 24.9047C184.439 24.4969 183.532 24.5567 182.36 25.069C181.78 24.4088 180.98 23.7074 179.898 22.9886C179.869 22.9692 179.839 22.9507 179.81 22.9317C180.084 20.8025 179.648 19.3995 178.781 18.8055C177.325 17.8066 174.494 18.6875 172.335 20.0032C170.044 21.3999 167.758 23.7322 168.215 26.0894C168.365 26.8646 168.8 27.5901 169.46 28.2309C169.431 28.4631 169.413 28.6918 169.409 28.9096C169.366 30.7853 170.072 32.243 171.295 32.8088C171.693 32.9929 172.137 33.0801 172.6 33.0801C173.293 33.0801 174.031 32.8775 174.74 32.5181C174.259 33.7281 173.938 34.9941 173.801 36.2757C173.585 38.3039 173.737 40.0494 174.385 42L175.741 41.965C175.148 40.1804 174.916 38.2584 175.114 36.4038C175.293 34.7123 175.822 33.0494 176.644 31.5318C177.746 32.6887 179.31 33.3384 180.881 33.3384C181.69 33.3384 182.501 33.1665 183.251 32.8029C184.961 31.9742 186.063 30.2452 186.198 28.1778C186.295 26.6961 185.852 25.4115 185.069 24.9047Z" fill="#6AA60E"/>
<path d="M206.48 28.9509L205.219 30.8214L205.879 33.5343C206.429 33.4428 207.037 33.4997 207.327 33.5661L207.823 35.322L201.916 36.8001L201.55 35.0124C201.777 34.8163 202.29 34.4792 202.818 34.3003L200.297 23.9311C198.729 24.2539 198.683 23.5926 198.481 22.7614C198.433 22.5642 198.407 22.3622 198.375 22.1374L204.239 20.6702C204.361 21.2665 204.482 21.8623 204.626 22.4528C204.373 22.6324 203.887 22.9864 203.359 23.1652L204.512 27.912L208.273 21.9347C207.718 22.0035 207.396 21.8992 207.041 21.8489L206.653 20.0656L211.956 18.7383L212.322 20.5268C212.068 20.706 211.706 21.0057 211.308 21.1515L208.039 26.4256L213.957 31.3029L215.67 31.4778L215.782 33.3526C213.713 33.8705 212.206 33.6911 210.342 32.1384L206.48 28.9509Z" fill="white"/>
<path d="M213.98 18.2492L219.993 17.1753L220.261 18.9802C220 19.1642 219.51 19.4576 218.971 19.5994L222.658 24.2254L224.524 18.6076C223.97 18.6612 223.411 18.5552 223.126 18.469L222.858 16.664L228.63 15.6328L228.876 17.4418C228.636 17.622 228.131 17.8268 227.592 17.9685L225.104 25.4586C224.72 26.6252 224.375 28.0137 223.716 29.4124C222.928 31.1087 221.373 32.0269 219.241 32.7278L218.315 30.3768C218.315 30.3768 220.561 29.2895 220.557 29.267C220.804 29.1319 221.022 28.9559 221.192 28.765C221.396 28.3857 221.647 27.8831 221.79 27.5375L215.823 20.162C215.268 20.2151 214.621 20.1248 214.336 20.0388L213.98 18.2492Z" fill="white"/>
<path d="M229.77 15.4918L235.832 14.7642L236 16.5823C235.728 16.7509 235.223 17.0158 234.677 17.1266L238.101 21.9566L240.277 16.4549C239.721 16.476 239.168 16.3382 238.888 16.2357L238.721 14.4182L244.541 13.7197L244.686 15.5403C244.438 15.7059 243.921 15.8812 243.376 15.9924L240.474 23.328C240.026 24.4708 239.604 25.8373 238.868 27.1962C237.987 28.845 236.384 29.6725 234.216 30.25L233.422 27.8495C233.422 27.8495 235.725 26.8927 235.722 26.8706C235.977 26.7491 236.204 26.5855 236.383 26.4055C236.609 26.038 236.888 25.551 237.049 25.2137L231.501 17.5074C230.945 17.529 230.305 17.4015 230.024 17.2987L229.77 15.4918Z" fill="white"/>
<path d="M245.633 28.8606L244.93 26.4489C244.93 26.4489 247.145 25.3405 247.144 25.3186C247.65 24.9199 247.845 23.8896 247.915 23.2973C247.922 22.7549 247.896 22.0786 247.838 21.247L247.456 15.7854C246.897 15.758 246.643 15.6182 246.413 15.5216L246.219 13.7061L258.931 12.7891L259.015 14.6129C258.758 14.7669 258.197 15.0109 257.647 15.0961L258.392 25.7492C258.949 25.7545 259.539 25.915 259.813 26.0312L260.008 27.8464L253.94 28.2841L253.879 26.4587C254.135 26.3052 254.697 26.0609 255.247 25.9761L254.501 15.3223L250.161 15.6357L250.627 22.2886C250.935 26.6938 249.074 28.0926 245.633 28.8606Z" fill="white"/>
<path d="M269.438 21.0984L267.798 22.6359L267.845 25.4289C268.4 25.4648 268.981 25.6574 269.25 25.7883L269.346 27.6121L263.265 27.7153L263.301 25.8897C263.565 25.7497 264.139 25.5375 264.692 25.4829L264.517 14.8056C262.918 14.7647 263.018 14.1098 263.004 13.2539C263.001 13.051 263.019 12.8483 263.038 12.6226L269.074 12.5199C269.062 13.1283 269.05 13.7371 269.06 14.345C268.774 14.4625 268.222 14.6973 267.668 14.7517L267.749 19.6398L272.73 14.6656C272.174 14.6076 271.882 14.4321 271.547 14.3026L271.562 12.4775L277.022 12.3848L276.985 14.2103C276.699 14.328 276.281 14.5378 275.859 14.5899L271.514 18.9901L276.211 25.0838L277.841 25.6422L277.538 27.4949C275.407 27.5312 273.978 27.0148 272.502 25.0797L269.438 21.0984Z" fill="white"/>
<path d="M279.018 27.461L278.559 24.9896C278.559 24.9896 280.874 24.115 280.874 24.0923C281.418 23.7486 281.714 22.7431 281.844 22.1613C281.904 21.6224 281.946 20.9467 281.972 20.1137L282.137 14.6413C281.584 14.5563 281.345 14.3911 281.126 14.2716L281.115 12.4453L293.853 12.8414L293.754 14.6644C293.483 14.7911 292.9 14.9757 292.344 15.0037L292.021 25.6789C292.574 25.7413 293.146 25.9617 293.408 26.1051L293.419 27.9314L287.339 27.7425L287.46 25.9199C287.731 25.7934 288.314 25.6082 288.87 25.5807L289.193 14.9057L284.843 14.7706L284.642 21.4365C284.509 25.851 282.517 27.0515 279.018 27.461Z" fill="white"/>
<path d="M296.293 28.1299L296.502 26.316C296.779 26.2028 297.37 26.0469 297.927 26.0469L298.765 15.4009C296.824 15.1536 297.276 14.2177 297.499 13.083L308.278 13.9563L307.966 17.9098C307.652 17.9518 307.362 17.9508 307.119 17.9313C305.945 17.836 305.626 17.087 305.648 15.9588L301.908 15.6558L301.586 19.743L304.153 19.9514C304.208 19.8202 304.392 19.1793 304.446 19.071L306.21 19.282L305.948 21.2045L305.925 23.1917L304.127 23.1141C304.072 22.9738 304.01 22.3357 303.98 22.1527L301.413 21.9445L301.07 26.3018L305.142 26.6321C305.321 25.4934 305.729 24.8262 306.925 24.9231C307.168 24.9425 307.454 24.9885 307.759 25.0809C307.653 26.4286 307.547 27.776 307.441 29.1235L305.013 28.8367L296.293 28.1299Z" fill="white"/>
<path d="M316.423 17.1287L315.897 21.2623L317.108 21.4211C318.539 21.6087 319.816 21.2536 320.026 19.6C320.203 18.2146 319.335 17.4649 317.706 17.2514C317.331 17.2021 316.823 17.158 316.423 17.1287ZM315.616 23.4743L315.078 27.6979C315.254 27.7209 316.79 27.9672 317.032 27.9991C318.419 28.1811 319.533 27.6915 319.715 26.261C319.889 24.8984 318.985 23.9159 317.09 23.6679L315.616 23.4743ZM310.238 29.3122L310.535 27.5109C310.816 27.4116 311.414 27.2856 311.97 27.3127L313.319 16.7215C311.742 16.4464 311.935 15.8131 312.043 14.9639C312.068 14.7632 312.116 14.5646 312.167 14.3438L314.698 14.6761C315.183 14.7395 317.462 14.9476 318.607 15.0979C321.425 15.4675 323.704 17.2651 323.393 19.701C323.089 22.0917 321.401 22.6884 320.007 22.7327L319.985 22.9116C321.94 23.5539 323.287 24.753 323.023 26.8313C322.713 29.2667 320.487 30.7469 317.075 30.2994C315.996 30.1582 314.488 29.8692 313.74 29.7712L310.238 29.3122Z" fill="white"/>
<path d="M325.023 31.3265L325.417 29.545C325.702 29.4614 326.307 29.3688 326.861 29.4275L328.784 18.927C326.879 18.4761 327.424 17.5936 327.762 16.4883L338.393 18.4929L337.679 22.392C337.361 22.4006 337.073 22.3695 336.833 22.3239C335.676 22.1059 335.435 21.3267 335.572 20.2072L331.883 19.5114L331.145 23.5434L333.677 24.0205C333.745 23.8963 333.994 23.2786 334.057 23.1757L335.792 23.5718L335.333 25.4561L335.108 27.4303L333.328 27.1631C333.287 27.0181 333.291 26.377 333.28 26.1918L330.747 25.7142L329.961 30.0121L333.977 30.7695C334.271 29.656 334.747 29.0351 335.925 29.2575C336.165 29.3031 336.445 29.3786 336.738 29.5024C336.495 30.8318 336.252 32.1608 336.009 33.4906L333.623 32.9488L325.023 31.3265Z" fill="white"/>
<path d="M346.691 22.7102L345.56 27.2771C345.56 27.2771 346.739 27.6016 346.997 27.6673C348.87 28.1452 350.077 27.3376 350.418 25.961C350.786 24.4754 349.888 23.4794 348.532 23.1335L346.691 22.7102ZM345.079 29.2221L344.126 33.0678C344.653 33.2488 345.595 33.6983 345.821 33.8949L345.447 35.6814L339.117 34.0672L339.62 32.3138C339.911 32.2486 340.519 32.1944 341.069 32.2878L343.633 21.9306C341.76 21.36 342.359 20.5139 342.764 19.4326L345.8 20.2065C345.8 20.2065 348.621 20.833 349.245 20.9924C349.332 21.0145 349.418 21.0361 349.525 21.0635C352.884 21.9204 354.049 24.3319 353.492 26.5825C353.005 28.5488 351.161 30.9129 347.436 29.9626C347.242 29.9132 347.048 29.8634 346.86 29.7927C346.623 29.7322 345.079 29.2221 345.079 29.2221Z" fill="white"/>
<path d="M375.245 42C382.842 42 389.001 35.732 389.001 28C389.001 20.268 382.842 14 375.245 14C367.647 14 361.488 20.268 361.488 28C361.488 35.732 367.647 42 375.245 42Z" fill="white"/>
<path fill-rule="evenodd" clip-rule="evenodd" d="M383.377 28.0984C383.338 28.7034 383.06 30.7497 381.15 31.6753C379.527 32.4615 377.521 32.0541 376.234 30.802C380.683 30.4607 381.791 29.0974 382.04 28.2674C382.205 27.7146 382.108 26.9664 381.611 26.1031C382.204 25.8596 382.616 25.8158 382.827 25.9523C383.102 26.1301 383.455 26.9142 383.377 28.0984ZM370.371 31.6707C369.565 31.2978 369.261 30.1582 369.234 29.1943C370.413 29.9105 371.933 30.4434 373.657 30.716C372.504 31.7351 371.157 32.0343 370.371 31.6707ZM373.647 29.4313C371.918 29.1246 370.414 28.5209 369.39 27.7545C369.562 27.1108 369.834 26.6949 370.047 26.6069C370.094 26.5875 370.15 26.5778 370.215 26.5778C370.823 26.5778 372.197 27.439 373.647 29.4313ZM367.999 25.8603C367.788 24.7716 368.587 22.8644 371.531 21.0696C373.147 20.085 374.66 19.6359 375.635 19.6359C376.014 19.6359 376.311 19.7033 376.501 19.8339C376.96 20.1482 377.155 20.9887 377.054 22.2063C375.511 21.4126 373.871 20.9748 372.928 21.6451C371.987 22.3129 371.933 23.9543 372.756 26.5373C371.551 25.5127 370.387 25.0868 369.516 25.4453C368.992 25.6614 368.616 26.132 368.358 26.7025C368.181 26.4299 368.055 26.1484 367.999 25.8603ZM373.719 22.6603C373.799 22.6039 373.932 22.5735 374.111 22.5735C374.662 22.5735 375.654 22.8676 376.858 23.5506C376.557 24.9889 375.953 26.7533 375.001 28.7217C373.514 25.24 373.203 23.0273 373.719 22.6603ZM380.766 27.9191C380.551 28.6361 378.989 29.2209 376.769 29.4771C378.244 28.1946 379.479 27.2842 380.448 26.7019C380.739 27.1793 380.861 27.6039 380.766 27.9191ZM379.657 25.6932C378.842 26.1819 377.93 26.837 376.919 27.6628C377.439 26.4292 377.814 25.3072 378.051 24.3117C378.676 24.7604 379.22 25.2331 379.657 25.6932ZM383.562 24.9047C382.932 24.4969 382.024 24.5567 380.853 25.069C380.273 24.4088 379.473 23.7074 378.39 22.9886C378.361 22.9692 378.331 22.9507 378.302 22.9317C378.576 20.8025 378.141 19.3995 377.274 18.8055C375.817 17.8066 372.986 18.6875 370.828 20.0032C368.537 21.3999 366.251 23.7322 366.707 26.0894C366.857 26.8646 367.293 27.5901 367.953 28.2309C367.924 28.4631 367.906 28.6918 367.901 28.9096C367.859 30.7853 368.564 32.243 369.788 32.8088C370.186 32.9929 370.629 33.0801 371.093 33.0801C371.785 33.0801 372.523 32.8775 373.233 32.5181C372.752 33.7281 372.43 34.9941 372.293 36.2757C372.078 38.3039 372.229 40.0494 372.878 42L374.233 41.965C373.64 40.1804 373.409 38.2584 373.606 36.4038C373.786 34.7123 374.314 33.0494 375.137 31.5318C376.238 32.6887 377.803 33.3384 379.374 33.3384C380.183 33.3384 380.993 33.1665 381.743 32.8029C383.453 31.9742 384.556 30.2452 384.691 28.1778C384.788 26.6961 384.345 25.4115 383.562 24.9047Z" fill="#6AA60E"/>
<g filter="url(#filter0_f_11929_4054)">
<path d="M401.917 25.9276C404.189 25.5834 406.459 25.2409 408.728 24.8964C409.492 24.7804 409.791 25.475 409.193 25.8375C407.451 26.9206 405.708 28.0018 403.965 29.0828C405.842 30.3296 407.716 31.578 409.593 32.8245C410.094 33.156 409.549 33.8074 409.005 33.6822C406.757 33.1623 404.512 32.6443 402.265 32.1246C401.756 34.224 401.246 36.3235 400.739 38.4229C400.616 38.9259 399.71 38.9004 399.571 38.4229L397.745 32.2119C395.63 32.5809 393.518 32.9481 391.405 33.3153L391.388 33.3183C390.857 33.411 390.282 32.806 390.8 32.4605C392.567 31.2781 394.333 30.0957 396.1 28.9133L391.051 26.0137C390.567 25.7355 390.728 25.0586 391.358 25.0563C393.476 25.05 395.712 25.5294 397.828 25.8574C398.229 23.893 398.63 21.9303 399.032 19.9656C399.136 19.4556 400.064 19.4927 400.2 19.9656C400.773 21.9522 401.345 23.9407 401.917 25.9276Z" fill="#FFD028"/>
</g>
<path d="M401.745 27.4838C403.173 27.6279 404.601 27.7727 406.028 27.9163C406.508 27.9646 406.582 28.4315 406.164 28.5583C404.941 28.9436 403.718 29.3278 402.495 29.7119C403.438 30.7579 404.379 31.8046 405.322 32.8504C405.573 33.1288 405.143 33.4387 404.832 33.2784C403.552 32.6149 402.273 31.9529 400.994 31.2896C400.359 32.4817 399.725 33.6737 399.093 34.8661C398.94 35.1516 398.396 34.9956 398.385 34.6848L398.244 30.6412C396.907 30.5365 395.571 30.431 394.236 30.3256L394.223 30.3246C393.887 30.2984 393.633 29.8429 394 29.714C395.254 29.2724 396.506 28.8305 397.759 28.3888L395.153 25.85C394.903 25.6064 395.105 25.2216 395.487 25.3179C396.77 25.6428 398.049 26.2798 399.28 26.8067L400.923 23.4265C401.065 23.1339 401.621 23.3003 401.63 23.6078C401.669 24.8994 401.707 26.1921 401.745 27.4838Z" fill="white"/>
<g filter="url(#filter1_f_11929_4054)">
<path d="M147.668 25.9276C145.397 25.5834 143.127 25.2409 140.858 24.8964C140.094 24.7804 139.795 25.475 140.392 25.8375C142.135 26.9206 143.878 28.0018 145.62 29.0828C143.744 30.3296 141.87 31.578 139.993 32.8245C139.492 33.156 140.037 33.8074 140.581 33.6822C142.829 33.1623 145.074 32.6443 147.321 32.1246C147.83 34.224 148.339 36.3235 148.846 38.4229C148.969 38.9259 149.875 38.9004 150.015 38.4229L151.84 32.2119C153.955 32.5809 156.068 32.9481 158.181 33.3153L158.198 33.3183C158.729 33.411 159.304 32.806 158.786 32.4605C157.019 31.2781 155.253 30.0957 153.486 28.9133L158.534 26.0137C159.019 25.7355 158.857 25.0586 158.228 25.0563C156.11 25.05 153.874 25.5294 151.758 25.8574C151.357 23.893 150.955 21.9303 150.554 19.9656C150.45 19.4556 149.522 19.4927 149.385 19.9656C148.813 21.9522 148.241 23.9407 147.668 25.9276Z" fill="#FFD028"/>
</g>
<path d="M147.841 27.4838C146.412 27.6279 144.985 27.7727 143.558 27.9163C143.077 27.9646 143.004 28.4315 143.422 28.5583C144.645 28.9436 145.868 29.3278 147.091 29.7119C146.148 30.7579 145.207 31.8046 144.264 32.8504C144.012 33.1288 144.443 33.4387 144.753 33.2784C146.033 32.6149 147.312 31.9529 148.592 31.2896C149.226 32.4817 149.86 33.6737 150.493 34.8661C150.646 35.1516 151.19 34.9956 151.201 34.6848L151.342 30.6412C152.679 30.5365 154.015 30.431 155.35 30.3256L155.363 30.3246C155.699 30.2984 155.953 29.8429 155.586 29.714C154.332 29.2724 153.08 28.8305 151.826 28.3888L154.433 25.85C154.683 25.6064 154.48 25.2216 154.099 25.3179C152.815 25.6428 151.536 26.2798 150.306 26.8067L148.663 23.4265C148.521 23.1339 147.965 23.3003 147.956 23.6078C147.917 24.8994 147.879 26.1921 147.841 27.4838Z" fill="white"/>
<g filter="url(#filter2_f_11929_4054)">
<path d="M393.983 12.8398C394.958 12.692 395.933 12.5449 396.907 12.397C397.235 12.3472 397.364 12.6455 397.107 12.8011C396.359 13.2662 395.61 13.7305 394.862 14.1948C395.668 14.7302 396.473 15.2663 397.279 15.8016C397.494 15.9439 397.26 16.2237 397.026 16.1699C396.061 15.9466 395.097 15.7242 394.132 15.501C393.913 16.4026 393.694 17.3041 393.477 18.2057C393.424 18.4217 393.035 18.4108 392.975 18.2057L392.191 15.5385C391.283 15.6969 390.376 15.8545 389.469 16.0122L389.461 16.0136C389.233 16.0534 388.986 15.7936 389.208 15.6453C389.967 15.1375 390.725 14.6298 391.484 14.122L389.316 12.8768C389.108 12.7573 389.178 12.4667 389.448 12.4657C390.358 12.463 391.318 12.6688 392.226 12.8097L392.743 10.2796C392.788 10.0605 393.186 10.0765 393.245 10.2796L393.983 12.8398Z" fill="#FFD028"/>
</g>
<path d="M393.908 13.5081C394.522 13.57 395.135 13.6322 395.748 13.6938C395.954 13.7146 395.986 13.9151 395.806 13.9695C395.281 14.135 394.756 14.3 394.231 14.4649C394.635 14.9141 395.04 15.3636 395.445 15.8127C395.553 15.9323 395.368 16.0653 395.234 15.9965C394.685 15.7116 394.136 15.4273 393.586 15.1425C393.314 15.6543 393.041 16.1663 392.77 16.6783C392.704 16.8009 392.47 16.7339 392.466 16.6004L392.405 14.864C391.831 14.8191 391.258 14.7738 390.685 14.7285L390.678 14.728C390.534 14.7168 390.425 14.5212 390.583 14.4658C391.121 14.2762 391.659 14.0864 392.197 13.8968L391.078 12.8065C390.97 12.7019 391.057 12.5366 391.221 12.578C391.772 12.7175 392.322 12.9911 392.85 13.2173L393.556 11.7658C393.617 11.6401 393.855 11.7116 393.859 11.8436L393.908 13.5081Z" fill="white"/>
<g filter="url(#filter3_f_11929_4054)">
<path d="M155.603 12.8398C154.628 12.692 153.653 12.5449 152.678 12.397C152.351 12.3472 152.222 12.6455 152.479 12.8011C153.227 13.2662 153.975 13.7305 154.724 14.1948C153.918 14.7302 153.113 15.2663 152.307 15.8016C152.092 15.9439 152.326 16.2237 152.56 16.1699C153.525 15.9466 154.489 15.7242 155.454 15.501C155.673 16.4026 155.891 17.3041 156.109 18.2057C156.162 18.4217 156.551 18.4108 156.611 18.2057L157.395 15.5385C158.303 15.6969 159.21 15.8545 160.117 16.0122L160.125 16.0136C160.353 16.0534 160.6 15.7936 160.378 15.6453C159.618 15.1375 158.86 14.6298 158.101 14.122L160.269 12.8768C160.477 12.7573 160.408 12.4667 160.138 12.4657C159.228 12.463 158.268 12.6688 157.36 12.8097L156.842 10.2796C156.798 10.0605 156.399 10.0765 156.341 10.2796L155.603 12.8398Z" fill="#FFD028"/>
</g>
<path d="M155.677 13.5081C155.064 13.57 154.451 13.6322 153.838 13.6938C153.632 13.7146 153.6 13.9151 153.78 13.9695C154.305 14.135 154.83 14.3 155.355 14.4649C154.95 14.9141 154.546 15.3636 154.141 15.8127C154.033 15.9323 154.218 16.0653 154.351 15.9965C154.901 15.7116 155.45 15.4273 156 15.1425C156.272 15.6543 156.544 16.1663 156.816 16.6783C156.882 16.8009 157.116 16.7339 157.12 16.6004L157.181 14.864C157.755 14.8191 158.328 14.7738 158.901 14.7285L158.907 14.728C159.052 14.7168 159.161 14.5212 159.003 14.4658C158.465 14.2762 157.927 14.0864 157.389 13.8968L158.508 12.8065C158.616 12.7019 158.528 12.5366 158.365 12.578C157.813 12.7175 157.264 12.9911 156.736 13.2173L156.03 11.7658C155.969 11.6401 155.731 11.7116 155.726 11.8436L155.677 13.5081Z" fill="white"/>
<g filter="url(#filter4_f_11929_4054)">
<path d="M391.983 41.8398C392.958 41.692 393.933 41.5449 394.907 41.397C395.235 41.3472 395.364 41.6455 395.107 41.8011C394.359 42.2662 393.61 42.7305 392.862 43.1948C393.668 43.7302 394.473 44.2663 395.279 44.8016C395.494 44.9439 395.26 45.2237 395.026 45.1699C394.061 44.9466 393.097 44.7242 392.132 44.501C391.913 45.4026 391.694 46.3041 391.477 47.2057C391.424 47.4217 391.035 47.4108 390.975 47.2057L390.191 44.5385C389.283 44.6969 388.376 44.8545 387.469 45.0122L387.461 45.0136C387.233 45.0534 386.986 44.7936 387.208 44.6453C387.967 44.1375 388.725 43.6298 389.484 43.122L387.316 41.8768C387.108 41.7573 387.178 41.4667 387.448 41.4657C388.358 41.463 389.318 41.6688 390.226 41.8097L390.743 39.2796C390.788 39.0605 391.186 39.0765 391.245 39.2796L391.983 41.8398Z" fill="#FFD028"/>
</g>
<path d="M391.908 42.5081C392.522 42.57 393.135 42.6322 393.748 42.6938C393.954 42.7146 393.986 42.9151 393.806 42.9695C393.281 43.135 392.756 43.3 392.231 43.4649C392.635 43.9141 393.04 44.3636 393.445 44.8127C393.553 44.9323 393.368 45.0653 393.234 44.9965C392.685 44.7116 392.136 44.4273 391.586 44.1425C391.314 44.6543 391.041 45.1663 390.77 45.6783C390.704 45.8009 390.47 45.7339 390.466 45.6004L390.405 43.864C389.831 43.8191 389.258 43.7738 388.685 43.7285L388.678 43.728C388.534 43.7168 388.425 43.5212 388.583 43.4658C389.121 43.2762 389.659 43.0864 390.197 42.8968L389.078 41.8065C388.97 41.7019 389.057 41.5366 389.221 41.578C389.772 41.7175 390.322 41.9911 390.85 42.2173L391.556 40.7658C391.617 40.6401 391.855 40.7116 391.859 40.8436L391.908 42.5081Z" fill="white"/>
<g filter="url(#filter5_f_11929_4054)">
<path d="M157.603 41.8398C156.628 41.692 155.653 41.5449 154.678 41.397C154.351 41.3472 154.222 41.6455 154.479 41.8011C155.227 42.2662 155.975 42.7305 156.724 43.1948C155.918 43.7302 155.113 44.2663 154.307 44.8016C154.092 44.9439 154.326 45.2237 154.56 45.1699C155.525 44.9466 156.489 44.7242 157.454 44.501C157.673 45.4026 157.891 46.3041 158.109 47.2057C158.162 47.4217 158.551 47.4108 158.611 47.2057L159.395 44.5385C160.303 44.6969 161.21 44.8545 162.117 45.0122L162.125 45.0136C162.353 45.0534 162.6 44.7936 162.378 44.6453C161.618 44.1375 160.86 43.6298 160.101 43.122L162.269 41.8768C162.477 41.7573 162.408 41.4667 162.138 41.4657C161.228 41.463 160.268 41.6688 159.36 41.8097L158.842 39.2796C158.798 39.0605 158.399 39.0765 158.341 39.2796L157.603 41.8398Z" fill="#FFD028"/>
</g>
<path d="M157.677 42.5081C157.064 42.57 156.451 42.6322 155.838 42.6938C155.632 42.7146 155.6 42.9151 155.78 42.9695C156.305 43.135 156.83 43.3 157.355 43.4649C156.95 43.9141 156.546 44.3636 156.141 44.8127C156.033 44.9323 156.218 45.0653 156.351 44.9965C156.901 44.7116 157.45 44.4273 158 44.1425C158.272 44.6543 158.544 45.1663 158.816 45.6783C158.882 45.8009 159.116 45.7339 159.12 45.6004L159.181 43.864C159.755 43.8191 160.328 43.7738 160.901 43.7285L160.907 43.728C161.052 43.7168 161.161 43.5212 161.003 43.4658C160.465 43.2762 159.927 43.0864 159.389 42.8968L160.508 41.8065C160.616 41.7019 160.528 41.5366 160.365 41.578C159.813 41.7175 159.264 41.9911 158.736 42.2173L158.03 40.7658C157.969 40.6401 157.731 40.7116 157.726 40.8436L157.677 42.5081Z" fill="white"/>
<g clip-path="url(#clip1_11929_4054)">
<g opacity="0.7">
<ellipse cx="127.75" cy="28.2925" rx="1.12842" ry="1.12778" transform="rotate(13.962 127.75 28.2925)" fill="#F3D569"/>
<ellipse cx="145.913" cy="2.01246" rx="0.564211" ry="0.563892" transform="rotate(13.962 145.913 2.01246)" fill="#F3D569"/>
<ellipse cx="0.564211" cy="0.563892" rx="0.564211" ry="0.563892" transform="matrix(-0.970456 -0.241278 -0.241278 0.970456 153.95 26.9629)" fill="#F3D569"/>
<ellipse cx="90.3774" cy="17.2576" rx="0.564211" ry="0.563892" transform="rotate(13.962 90.3774 17.2576)" fill="#F3D569"/>
<ellipse cx="1.12842" cy="1.12778" rx="1.12842" ry="1.12778" transform="matrix(0.970456 0.241278 0.241278 -0.970456 118.052 40.4082)" fill="#F1D87F"/>
<ellipse cx="81.1157" cy="48.6577" rx="1.12842" ry="1.12778" transform="rotate(-166.038 81.1157 48.6577)" fill="#F1D87F"/>
<ellipse cx="1.12842" cy="1.12778" rx="1.12842" ry="1.12778" transform="matrix(0.970456 0.241278 0.241278 -0.970456 154.282 18.6201)" fill="#F1D87F"/>
<ellipse cx="59.3072" cy="12.4389" rx="1.12842" ry="1.12778" transform="rotate(-166.038 59.3072 12.4389)" fill="#F1D87F"/>
<ellipse cx="41.1444" cy="38.72" rx="0.564211" ry="0.563892" transform="rotate(-166.038 41.1444 38.72)" fill="#F1D87F"/>
<ellipse cx="0.564211" cy="0.563892" rx="0.564211" ry="0.563892" transform="matrix(0.970456 0.241278 0.241278 -0.970456 116.775 10.457)" fill="#F1D87F"/>
<ellipse cx="96.6796" cy="23.4739" rx="0.564211" ry="0.563892" transform="rotate(-166.038 96.6796 23.4739)" fill="#F1D87F"/>
</g>
</g>
<g clip-path="url(#clip2_11929_4054)">
<g opacity="0.7">
<ellipse cx="1.12842" cy="1.12778" rx="1.12842" ry="1.12778" transform="matrix(-0.672039 0.740516 0.740516 0.672039 448.712 6.77628)" fill="#F3D569"/>
<ellipse cx="1.12842" cy="1.12778" rx="1.12842" ry="1.12778" transform="matrix(-0.672039 0.740516 0.740516 0.672039 450.747 49.0042)" fill="#F3D569"/>
<ellipse cx="0.564211" cy="0.563892" rx="0.564211" ry="0.563892" transform="matrix(-0.672039 0.740516 0.740516 0.672039 421.07 38.0735)" fill="#F3D569"/>
<ellipse cx="0.564211" cy="0.563892" rx="0.564211" ry="0.563892" transform="matrix(-0.672039 0.740516 0.740516 0.672039 475.695 19.8352)" fill="#F3D569"/>
<ellipse cx="464.03" cy="55.345" rx="1.12842" ry="1.12778" transform="rotate(132.225 464.03 55.345)" fill="#F1D87F"/>
<ellipse cx="1.12842" cy="1.12778" rx="1.12842" ry="1.12778" transform="matrix(0.672039 -0.740516 -0.740516 -0.672039 500.979 43.1603)" fill="#F1D87F"/>
<ellipse cx="421.803" cy="57.4042" rx="1.12842" ry="1.12778" transform="rotate(132.225 421.803 57.4042)" fill="#F1D87F"/>
<ellipse cx="1.12842" cy="1.12778" rx="1.12842" ry="1.12778" transform="matrix(0.672039 -0.740516 -0.740516 -0.672039 498.944 0.931541)" fill="#F1D87F"/>
<ellipse cx="0.564211" cy="0.563892" rx="0.564211" ry="0.563892" transform="matrix(0.672039 -0.740516 -0.740516 -0.672039 528.621 11.8631)" fill="#F1D87F"/>
<ellipse cx="449.22" cy="29.7103" rx="0.564211" ry="0.563892" transform="rotate(132.225 449.22 29.7103)" fill="#F1D87F"/>
<ellipse cx="0.564211" cy="0.563892" rx="0.564211" ry="0.563892" transform="matrix(0.672039 -0.740516 -0.740516 -0.672039 473.995 30.1006)" fill="#F1D87F"/>
</g>
</g>
</g>
<defs>
<filter id="filter0_f_11929_4054" x="382.32" y="11.3196" width="35.7484" height="35.7484" filterUnits="userSpaceOnUse" color-interpolation-filters="sRGB">
<feFlood flood-opacity="0" result="BackgroundImageFix"/>
<feBlend mode="normal" in="SourceGraphic" in2="BackgroundImageFix" result="shape"/>
<feGaussianBlur stdDeviation="4.13866" result="effect1_foregroundBlur_11929_4054"/>
</filter>
<filter id="filter1_f_11929_4054" x="131.518" y="11.3196" width="35.7484" height="35.7484" filterUnits="userSpaceOnUse" color-interpolation-filters="sRGB">
<feFlood flood-opacity="0" result="BackgroundImageFix"/>
<feBlend mode="normal" in="SourceGraphic" in2="BackgroundImageFix" result="shape"/>
<feGaussianBlur stdDeviation="4.13866" result="effect1_foregroundBlur_11929_4054"/>
</filter>
<filter id="filter2_f_11929_4054" x="385.567" y="6.56667" width="15.3515" height="15.3515" filterUnits="userSpaceOnUse" color-interpolation-filters="sRGB">
<feFlood flood-opacity="0" result="BackgroundImageFix"/>
<feBlend mode="normal" in="SourceGraphic" in2="BackgroundImageFix" result="shape"/>
<feGaussianBlur stdDeviation="1.77727" result="effect1_foregroundBlur_11929_4054"/>
</filter>
<filter id="filter3_f_11929_4054" x="148.668" y="6.56667" width="15.3515" height="15.3515" filterUnits="userSpaceOnUse" color-interpolation-filters="sRGB">
<feFlood flood-opacity="0" result="BackgroundImageFix"/>
<feBlend mode="normal" in="SourceGraphic" in2="BackgroundImageFix" result="shape"/>
<feGaussianBlur stdDeviation="1.77727" result="effect1_foregroundBlur_11929_4054"/>
</filter>
<filter id="filter4_f_11929_4054" x="383.567" y="35.5667" width="15.3515" height="15.3515" filterUnits="userSpaceOnUse" color-interpolation-filters="sRGB">
<feFlood flood-opacity="0" result="BackgroundImageFix"/>
<feBlend mode="normal" in="SourceGraphic" in2="BackgroundImageFix" result="shape"/>
<feGaussianBlur stdDeviation="1.77727" result="effect1_foregroundBlur_11929_4054"/>
</filter>
<filter id="filter5_f_11929_4054" x="150.668" y="35.5667" width="15.3515" height="15.3515" filterUnits="userSpaceOnUse" color-interpolation-filters="sRGB">
<feFlood flood-opacity="0" result="BackgroundImageFix"/>
<feBlend mode="normal" in="SourceGraphic" in2="BackgroundImageFix" result="shape"/>
<feGaussianBlur stdDeviation="1.77727" result="effect1_foregroundBlur_11929_4054"/>
</filter>
<clipPath id="clip0_11929_4054">
<rect width="562" height="56" fill="white"/>
</clipPath>
<clipPath id="clip1_11929_4054">
<rect width="119.799" height="118.417" fill="white" transform="translate(39.5714 -59) rotate(13.962)"/>
</clipPath>
<clipPath id="clip2_11929_4054">
<rect width="119.799" height="118.417" fill="white" transform="matrix(-0.672039 0.740516 0.740516 0.672039 475.509 -71)"/>
</clipPath>
</defs>
</svg>
